# AST/ASF file generated using VICON BodyLanguage
# -----------------------------------------------
:version 1.10
:name VICON
:units
  mass 1.0
  length 0.45
  angle deg
:documentation
   .ast/.asf automatically generated from VICON data using
   VICON BodyBuilder and BodyLanguage model FoxedUp or BRILLIANT.MOD
:root
   order TX TY TZ RX RY RZ
   axis XYZ
   position 0 0 0  
   orientation 0 0 0 
:bonedata
  begin
     id 1 
     name lhipjoint
     direction 0.690799 -0.707083 0.151096 
     length 2.54797 
     axis 0 0 0  XYZ
  end
  begin
     id 2 
     name lfemur
     direction 0.34202 -0.939693 0  
     length 7.21646  
     axis 0 0 20  XYZ
    dof rx ry rz
    limits (-160.0 20.0)
           (-70.0 70.0)
           (-60.0 70.0)
  end
  begin
     id 3 
     name ltibia
     direction 0.34202 -0.939693 0   
     length 8.16759   
     axis 0 0 20   XYZ
    dof rx
    limits (-10.0 170.0)
  end
  begin
     id 4 
     name lfoot
     direction 0.0487203 -0.133858 0.989802   
     length 1.93375   
     axis -90 7.62852e-016 20   XYZ
    dof rx rz
    limits (-45.0 90.0)
           (-70.0 20.0)
  end
  begin
     id 5 
     name ltoes
     direction 1.53453e-011 -4.21783e-011 1   
     length 0.979747   
     axis -90 7.62852e-016 20   XYZ
    dof rx
    limits (-90.0 20.0)
  end
  begin
     id 6 
     name rhipjoint
     direction -0.694693 -0.703425 0.150315   
     length 2.56122  
     axis 0 0 0  XYZ 
  end
  begin
     id 7 
     name rfemur
     direction -0.34202 -0.939693 0   
     length 7.36786   
     axis 0 0 -20   XYZ
    dof rx ry rz
    limits (-160.0 20.0)
           (-70.0 70.0)
           (-70.0 60.0)
  end
  begin
     id 8 
     name rtibia
     direction -0.34202 -0.939693 0   
     length 8.07288   
     axis 0 0 -20   XYZ
    dof rx
    limits (-10.0 170.0)
 end
 begin
     id 9 
     name rfoot
     direction -0.0428397 -0.117701 0.992125   
     length 1.88295  
     axis -90 -7.62852e-016 -20   XYZ
    dof rx rz
    limits (-45.0 90.0)
           (-20.0 70.0)
  end
  begin
     id 10 
     name rtoes
     direction -1.53456e-011 -4.2187e-011 1   
     length 0.955578   
     axis -90 -7.62852e-016 -20   XYZ
    dof rx
    limits (-90.0 20.0)
  end
  begin
     id 11 
     name lowerback
     direction 0.0288145 0.999398 -0.0193241   
     length 1.92149   
     axis 0 0 0   XYZ
    dof rx ry rz
    limits (-20.0 45.0)
           (-30.0 30.0)
           (-30.0 30.0)
  end
  begin
     id 12 
     name upperback
     direction 0.0233784 0.998099 0.0570278   
     length 1.90435   
     axis 0 0 0   XYZ
    dof rx ry rz
    limits (-20.0 45.0)
           (-30.0 30.0)
           (-30.0 30.0)
  end
  begin
     id 13 
     name thorax
     direction 0.0096694 0.997833 0.0650817   
     length 1.9111   
     axis 0 0 0   XYZ
    dof rx ry rz
    limits (-20.0 45.0)
           (-30.0 30.0)
           (-30.0 30.0)
  end
  begin
     id 14 
     name lowerneck
     direction 0.00516803 0.999916 0.0118722   
     length 1.74664   
     axis 0 0 0   XYZ
    dof rx ry rz
    limits (-20.0 45.0)
           (-30.0 30.0)
           (-30.0 30.0)
  end
  begin
     id 15 
     name upperneck
     direction -0.0510851 0.996117 -0.071696   
     length 1.68498   
     axis 0 0 0   XYZ
    dof rx ry rz
    limits (-20.0 45.0)
           (-30.0 30.0)
           (-30.0 30.0)
  end
  begin
     id 16
     name head
     direction -0.019188 0.999436 -0.0275702  
     length 1.83483  
     axis 0 0 0   XYZ
    dof rx ry rz
    limits (-20.0 45.0)
           (-30.0 30.0)
           (-30.0 30.0)
  end
  begin
     id 17 
     name lclavicle
     direction 0.967006 0.248456 -0.0562957  
     length 3.39395  
     axis 0 0 0   XYZ
    dof ry rz
    limits (-20.0 10.0)
           (0.0 20.0)
  end
  begin
     id 18 
     name lhumerus
     direction 1 -4.48962e-011 -5.62711e-019   
     length 5.24318   
     axis 180 -30 -90   XYZ
    dof rx ry rz
    limits (-60.0 90.0)
           (-90.0 90.0)
           (-90.0 90.0)
  end
  begin
     id 19
     name lradius
     direction 1 -4.48966e-011 7.90625e-027   
     length 2.98999   
     axis 180 -30 -90   XYZ
    dof rx
    limits (-10.0 170.0)
  end
  begin
     id 20
     name lwrist
     direction 1 -4.48959e-011 1.61068e-026   
     length 1.49499   
     axis -9.31229e-015 90 90   XYZ
    dof ry
    limits (-180.0 0.0)
 end
  begin
     id 21 
     name lhand
     direction 1 -4.49017e-011 3.22136e-026   
     length 0.726745   
     axis -2.0555e-014 90 90   XYZ
    dof rx rz
    limits (-90.0 90.0)
           (-45.0 45.0)
  end
  begin
     id 22 
     name lfingers
     direction 1 -4.4898e-011 6.44272e-026   
     length 0.58592   
     axis -4.11101e-014 90 90   XYZ
    dof rx
    limits (0.0 90.0)
  end
  begin
     id 23
     name lthumb
     direction 0.707107 -6.34922e-011 0.707107   
     length 0.841268   
     axis -90 45 2.85299e-015   XYZ
    dof rx rz
    limits (-45.0 45.0)
           (-45.0 45.0)
  end
  begin
     id 24 
     name rclavicle
     direction -0.972232 0.230238 0.0419005   
     length 3.40416  
     axis 0 0 0   XYZ 
    dof ry rz
    limits (-10.0 20.0)
           (-20.0 0.0)
  end
  begin
     id 25 
     name rhumerus
     direction -1 -4.48976e-011 2.48487e-027  
     length 5.37045   
     axis 180 30 90   XYZ
    dof rx ry rz
    limits (-90.0 60.0)
           (-90.0 90.0)
           (-90.0 90.0)
  end
  begin
     id 26 
     name rradius
     direction -1 -4.48942e-011 7.87951e-027   
     length 2.92792   
     axis 180 30 90   XYZ
    dof rx
    limits (-10.0 170.0)
  end
  begin
     id 27 
     name rwrist
     direction -1 -4.48969e-011 1.61068e-026   
     length 1.46396   
     axis -9.31229e-015 -90 -90   XYZ
    dof ry
    limits (-180.0 0.0)
  end
  begin
     id 28
     name rhand
     direction -1 -4.49043e-011 3.22136e-026   
     length 0.784497   
     axis -2.0555e-014 -90 -90   XYZ
    dof rx rz
    limits (-90.0 90.0)
           (-45.0 45.0)
  end
  begin
     id 29
     name rfingers
     direction -1 -4.48823e-011 6.44272e-026   
     length 0.632482   
     axis -4.11101e-014 -90 -90   XYZ
    dof rx
    limits (0.0 90.0)
  end
  begin
     id 30
     name rthumb
     direction -0.707107 -6.34923e-011 0.707107   
     length 0.908121   
     axis -90 -45 -2.85299e-015   XYZ
    dof rx rz
    limits (-45.0 45.0)
           (-45.0 45.0)
  end
:hierarchy
  begin
    root lhipjoint rhipjoint lowerback
    lhipjoint lfemur
    lfemur ltibia
    ltibia lfoot
    lfoot ltoes
    rhipjoint rfemur
    rfemur rtibia
    rtibia rfoot
    rfoot rtoes
    lowerback upperback
    upperback thorax
    thorax lowerneck lclavicle rclavicle
    lowerneck upperneck
    upperneck head
    lclavicle lhumerus
    lhumerus lradius
    lradius lwrist
    lwrist lhand lthumb
    lhand lfingers
    rclavicle rhumerus
    rhumerus rradius
    rradius rwrist
    rwrist rhand rthumb
    rhand rfingers
  end

#!OML:ASF E:\Style6\Style6.ASF
:FULLY-SPECIFIED
:DEGREES
299
root 0.279771 18.2856 0.649118 11.4074 -3.34201 -3.20038
lowerback -5.40677 -1.31398 3.43982
upperback -4.05508 -1.88074 3.53425
thorax -1.14059 -0.972572 1.62847
lowerneck -11.3116 1.47936 3.25754
upperneck 9.19757 2.17679 -6.15886
head 4.71315 0.796273 -2.28095
rclavicle 1.10325e-014 -4.77083e-014
rhumerus 62.0386 43.0756 -26.3873
rradius 106.261
rwrist -10.8253
rhand -17.7857 13.5638
rfingers 7.12502
rthumb 8.47711 -16.2461
lclavicle 1.10325e-014 -4.77083e-014
lhumerus 107.495 -60.4373 -39.3434
lradius 88.7019
lwrist 7.06014
lhand -3.57386 9.30385
lfingers 7.12502
lthumb 22.1631 38.0534
rfemur 0 0 0
rtibia 0
rfoot 0 0
rtoes 0
lfemur -14.489 -22.6264 -12.4888
ltibia 18.097
lfoot -8.37841 26.2493
ltoes -4.91499
300
root 0.281471 18.2852 0.655069 11.4422 -3.28955 -3.28075
lowerback -5.46207 -0.990063 3.58704
upperback -4.00434 -1.46058 3.25834
thorax -1.06957 -0.766982 1.27738
lowerneck -11.6172 1.16314 3.68643
upperneck 9.33459 1.66281 -6.01882
head 4.78236 0.56235 -2.3464
rclavicle -1.26725e-014 3.26007e-014
rhumerus 60.61 42.3668 -27.08
rradius 104.444
rwrist -11.0209
rhand -19.4958 13.4267
rfingers 7.12502
rthumb 6.8266 -16.4433
lclavicle -1.26725e-014 3.26007e-014
lhumerus 108.935 -59.2349 -40.5999
lradius 91.9136
lwrist 7.31593
lhand -4.2119 9.8003
lfingers 7.12502
lthumb 21.5505 38.6213
rfemur 0 0 0
rtibia 0
rfoot 0 0
rtoes 0
lfemur -14.5565 -22.5748 -12.402
ltibia 18.1565
lfoot -8.17864 26.2283
ltoes -5.75143
301
root 0.283797 18.2855 0.662952 11.4754 -3.21798 -3.30525
lowerback -5.57758 -0.749227 3.64265
upperback -3.99263 -1.14925 3.05868
thorax -0.9971 -0.613404 1.05193
lowerneck -11.6808 0.901926 3.96477
upperneck 9.37712 1.25324 -5.92611
head 4.78585 0.376386 -2.39425
rclavicle 5.08143e-015 -1.66979e-014
rhumerus 59.5581 41.9763 -27.3367
rradius 102.656
rwrist -10.7111
rhand -21.4831 13.0003
rfingers 7.12502
rthumb 4.90787 -16.9229
lclavicle 5.08143e-015 -1.66979e-014
lhumerus 109.562 -58.4011 -40.8977
lradius 94.8381
lwrist 7.3303
lhand -4.68255 9.66467
lfingers 7.12502
lthumb 21.0984 38.5368
rfemur 0 0 0
rtibia 0
rfoot 0 0
rtoes 0
lfemur -14.6237 -22.559 -12.3782
ltibia 18.2414
lfoot -8.12777 26.1792
ltoes -6.15651
302
root 0.284331 18.2853 0.670363 11.4793 -3.1175 -3.2541
lowerback -5.60015 -0.654715 3.55331
upperback -4.04383 -1.01844 2.988
thorax -1.03571 -0.547589 1.03519
lowerneck -11.6199 0.740029 3.95107
upperneck 9.43473 1.02966 -5.82853
head 4.78118 0.273077 -2.37855
rclavicle -2.93829e-015 2.70347e-014
rhumerus 58.937 41.9981 -27.2562
rradius 100.86
rwrist -9.95986
rhand -23.2203 12.1102
rfingers 7.12502
rthumb 3.23035 -17.845
lclavicle -2.93829e-015 2.70347e-014
lhumerus 109.46 -58.0182 -40.3727
lradius 97.6361
lwrist 7.26514
lhand -5.06763 9.42035
lfingers 7.12502
lthumb 20.7284 38.3333
rfemur 0 0 0
rtibia 0
rfoot 0 0
rtoes 0
lfemur -14.6861 -22.5715 -12.4267
ltibia 18.3515
lfoot -8.22752 26.0982
ltoes -6.05129
303
root 0.283364 18.2842 0.675349 11.4845 -2.94517 -3.33544
lowerback -5.54025 -0.654388 3.59042
upperback -4.13691 -1.01158 3.02161
thorax -1.16551 -0.546407 1.05151
lowerneck -11.5345 0.654749 3.78166
upperneck 9.54359 0.935986 -5.71533
head 4.79451 0.228697 -2.32295
rclavicle -1.43249e-014 -2.78299e-014
rhumerus 58.5287 42.2496 -27.0925
rradius 98.876
rwrist -8.97232
rhand -24.3599 11.8375
rfingers 7.12502
rthumb 2.12976 -18.1316
lclavicle -1.43249e-014 -2.78299e-014
lhumerus 108.688 -57.7886 -39.3132
lradius 100.531
lwrist 7.48049
lhand -5.58379 9.40948
lfingers 7.12502
lthumb 20.2324 38.3758
rfemur 0 0 0
rtibia 0
rfoot 0 0
rtoes 0
lfemur -14.769 -22.5648 -12.3007
ltibia 18.4427
lfoot -8.33659 25.936
ltoes -5.84602
304
root 0.282351 18.2828 0.679693 11.4726 -2.71912 -3.46503
lowerback -5.51173 -0.656972 3.7818
upperback -4.19151 -1.01837 2.98779
thorax -1.24265 -0.555381 0.910753
lowerneck -11.4382 0.582625 3.72176
upperneck 9.61884 0.841135 -5.60666
head 4.79622 0.187857 -2.28651
rclavicle -1.28899e-014 -7.95139e-016
rhumerus 58.0623 42.4995 -27.0158
rradius 96.6822
rwrist -7.88045
rhand -24.7966 12.2375
rfingers 7.12502
rthumb 1.70802 -17.7354
lclavicle -1.28899e-014 -7.95139e-016
lhumerus 107.436 -57.5073 -37.7734
lradius 103.29
lwrist 8.19695
lhand -5.9166 8.88533
lfingers 7.12502
lthumb 19.9125 37.8852
rfemur 0 0 0
rtibia 0
rfoot 0 0
rtoes 0
lfemur -14.8454 -22.5424 -12.1271
ltibia 18.5365
lfoot -8.09797 25.785
ltoes -6.82112
305
root 0.281785 18.2829 0.685847 11.4455 -2.48359 -3.49061
lowerback -5.5548 -0.654149 3.93903
upperback -4.21377 -1.0226 2.87153
thorax -1.2472 -0.56243 0.702798
lowerneck -11.3037 0.514225 3.74116
upperneck 9.65065 0.739086 -5.51078
head 4.77823 0.146421 -2.26712
rclavicle -1.56791e-014 -1.19271e-014
rhumerus 57.4844 42.7846 -27.0531
rradius 94.4027
rwrist -6.68611
rhand -24.6157 12.7039
rfingers 7.12502
rthumb 1.88276 -17.2676
lclavicle -1.56791e-014 -1.19271e-014
lhumerus 106.016 -57.194 -35.9315
lradius 105.856
lwrist 9.35898
lhand -6.26063 8.92575
lfingers 7.12502
lthumb 19.5818 37.9596
rfemur 0 0 0
rtibia 0
rfoot 0 0
rtoes 0
lfemur -14.9231 -22.4425 -12.0846
ltibia 18.6587
lfoot -7.89498 25.547
ltoes -7.78781
306
root 0.280298 18.2852 0.691367 11.398 -2.28692 -3.49521
lowerback -5.55604 -0.617265 4.03366
upperback -4.2543 -0.975684 2.73544
thorax -1.29196 -0.543523 0.512389
lowerneck -11.1603 0.426092 3.80896
upperneck 9.70961 0.602703 -5.4048
head 4.76562 0.0905254 -2.2551
rclavicle -9.51682e-015 2.10712e-014
rhumerus 56.8101 43.1813 -27.1593
rradius 92.1358
rwrist -5.4786
rhand -24.056 13.0982
rfingers 7.12502
rthumb 2.42329 -16.8678
lclavicle -9.51682e-015 2.10712e-014
lhumerus 104.514 -56.853 -33.9157
lradius 108.195
lwrist 11.1905
lhand -6.89691 9.48269
lfingers 7.12502
lthumb 18.97 38.5776
rfemur 0 0 0
rtibia 0
rfoot 0 0
rtoes 0
lfemur -14.9739 -22.3502 -12.0772
ltibia 18.7392
lfoot -7.69421 25.3995
ltoes -8.02823
307
root 0.27738 18.2867 0.695344 11.3174 -2.13196 -3.48642
lowerback -5.46775 -0.582827 3.99262
upperback -4.32357 -0.919584 2.68377
thorax -1.41163 -0.517274 0.486481
lowerneck -11.0202 0.349326 3.7422
upperneck 9.84144 0.504803 -5.29011
head 4.77771 0.0485269 -2.21598
rclavicle 3.65539e-015 -3.97569e-015
rhumerus 56.343 43.7439 -26.9355
rradius 89.8945
rwrist -4.40029
rhand -23.4625 13.507
rfingers 7.12502
rthumb 2.99645 -16.4517
lclavicle 3.65539e-015 -3.97569e-015
lhumerus 102.678 -56.5409 -31.4424
lradius 110.376
lwrist 13.7976
lhand -7.35134 9.86573
lfingers 7.12502
lthumb 18.5329 39.0029
rfemur 0 0 0
rtibia 0
rfoot 0 0
rtoes 0
lfemur -14.9552 -22.3426 -12.0884
ltibia 18.78
lfoot -7.46921 25.3012
ltoes -8.59439
308
root 0.274764 18.2866 0.701788 11.248 -1.9518 -3.46942
lowerback -5.42311 -0.57851 3.80083
upperback -4.40542 -0.899475 2.75263
thorax -1.51596 -0.503695 0.666791
lowerneck -10.8983 0.27613 3.50575
upperneck 10.0604 0.441211 -5.17801
head 4.8213 0.0159002 -2.14807
rclavicle -8.84281e-015 9.14409e-015
rhumerus 56.1191 44.5014 -26.3539
rradius 87.6174
rwrist -3.43978
rhand -22.8061 13.9966
rfingers 7.12502
rthumb 3.63037 -15.9522
lclavicle -8.84281e-015 9.14409e-015
lhumerus 100.668 -56.2397 -28.6612
lradius 112.39
lwrist 16.726
lhand -8.04561 11.4726
lfingers 7.12502
lthumb 17.865 40.672
rfemur 0 0 0
rtibia 0
rfoot 0 0
rtoes 0
lfemur -14.9332 -22.3754 -12.1065
ltibia 18.8382
lfoot -7.2467 25.2165
ltoes -9.61281
309
root 0.271474 18.2876 0.707205 11.1993 -1.77245 -3.47366
lowerback -5.43122 -0.565344 3.59216
upperback -4.47824 -0.87052 2.83375
thorax -1.58126 -0.484223 0.86872
lowerneck -10.7491 0.170781 3.29369
upperneck 10.2233 0.329535 -5.07617
head 4.84119 -0.0395732 -2.09028
rclavicle 1.20078e-014 -3.29983e-014
rhumerus 56.011 45.3286 -25.6065
rradius 85.3761
rwrist -2.51133
rhand -21.9147 14.4045
rfingers 7.12502
rthumb 4.49116 -15.5279
lclavicle 1.20078e-014 -3.29983e-014
lhumerus 98.4894 -55.8208 -25.6564
lradius 114.069
lwrist 20.0741
lhand -9.25878 14.3628
lfingers 7.12502
lthumb 16.6973 43.6647
rfemur 0 0 0
rtibia 0
rfoot 0 0
rtoes 0
lfemur -14.945 -22.3799 -12.089
ltibia 18.9217
lfoot -7.2747 25.0736
ltoes -9.65139
